<svg version="1.2" xmlns="http://www.w3.org/2000/svg" viewBox="0 0 703 437" width="703" height="437">
	<title>fetch-logo-svg</title>
	<style>
		.s0 { fill: #fba919 } 
	</style>
	<g id="Clip-Path">
		<path id="Layer" class="s0" d="m699.5 288.5c-1.7-24.1-13-52.9-78.9-34.3-33.9 9.7-65.2 10.1-78.7-3.2q-2.4-2.7-4.5-5.7c-5-10.2-2.8-25.8 10-47.5 2.8-6.1 7.3-11.2 13.1-14.6 5.7-3.4 12.3-5 19-4.6 10.5 0 22.5 2.2 37.1 1.9 45.8-1.2 63.3-29.7 61.2-55.9 0-7.9-10.9-5.5-30.9-10.2-19.9-4.8-35.6-2.4-39.7-30.3-2.4-7.8-7.1-14.8-13.5-19.9-6.4-5.2-14.3-8.2-22.5-8.9-16-2.4-50.2-18.7-75.8 1.7l-22.1-9.6c-14.4-3.6-14.4 6.5-27.9 11.5-13.4 5-37.1-7.3-30.6 9.1 4.8 9.5 12.8 17 22.7 21.2 9.9 4.1 20.9 4.5 31 1.2-15.7 79.3-92 97.1-155.5 94.7-40.6-1.6-78.9-19.2-106.5-48.9-27.6-29.7-42.2-69.1-40.7-109.6 0.9-24.3-7.1-31.4-14.4-18.7-3 5.4-5.2 11.1-6.7 17-0.7 2.5-1.3 5.2-1.8 8.1-4.1 28.2-0.7 57.1 9.9 83.6 10.6 26.6 28 49.9 50.4 67.6-13.2 11.7-22.6 27.1-26.8 44.2-2.9 12.4-3.3 25.2-1.1 37.6 0 3.3 1.3 5.2 1.3 5.2 5.5 26.2-43.3 43.2-64.5 47.3h-4.6q-4.3 0.3-8.6 0-4.7-0.2-9.3-0.9c-12.9-1-22.3 1-30.5 32.7-11.6 44.5-45.2 34.6-53.3 47.1-12.7 20.1 6.2 35.3 30.3 36.6 15.8 1.1 31.4-4.1 43.3-14.4 41.6-37.5 21.7-54 63-51.3 5.2 0 11.6 1 19.1 2 45.8 5.9 78.3 15.4 123.3-33.1 2.7-3.8 5.9-7.2 9.4-10.3 2.3-1.9 5-3.4 7.8-4.4 2.6-0.5 5.3-0.5 8 0 17.4 4 56.7 25.5 101.1 18.3 17.3-6.3 33.2-16.1 46.6-28.8 0 0 7.1-6.2 11.6 0 4.5 6.2 12 17.8 18.6 24.9 15.7 17.1 16 10.1 49.5-3.5 3.4-1.4 7-2.8 11-4.3 86.7-31.7 85.4-41.9 102.9-7.3 3.1 6.3 14.4 7 24.9 2.7 7.3-2.6 13.6-7.6 17.8-14.1 4.2-6.5 6.1-14.2 5.5-21.9z"/>
	</g>
</svg>