<svg version="1.2" xmlns="http://www.w3.org/2000/svg" viewBox="0 0 703 437" width="100%" height="100%">
	<style>
		.s0 { fill: #fba919 } 
	</style>
	<g id="Clip-Path">
		<path id="Layer copy" class="s0" d="m185 218c-8.5 9.4-11.9 35.6-9.7 48 0 3.3 1.3 5.2 1.3 5.2 5.5 26.2-43.3 43.2-64.5 47.3h-4.6q-4.3 0.3-8.6 0-4.7-0.2-9.3-0.9c-12.9-1-22.3 1-30.5 32.7-11.6 44.5-45.2 34.6-53.3 47.1-12.7 20.1 6.2 35.3 30.3 36.6 15.8 1.1 31.4-4.1 43.3-14.4 41.6-37.5 21.7-54 63-51.3 5.2 0 11.6 1 19.1 2 45.8 5.9 78.3 15.4 123.3-33.1 2.7-3.8 5.9-7.2 9.4-10.3 2.3-1.9 18.8-44 11.8-83-8-44.5-86-65-121-25.9z"/>
	</g>
</svg>