<svg version="1.2" xmlns="http://www.w3.org/2000/svg" viewBox="0 0 703 437" width="100%" height="100%">
	<style>
		.s0 { fill: #fba919 } 
	</style>
	<g id="Clip-Path">
		<path id="Layer copy 2" class="s0" d="m699.5 288.5c-1.7-24.1-13-52.9-78.9-34.3-33.9 9.7-65.2 10.1-78.7-3.2q-2.4-2.7-4.5-5.7c-5-10.2-28.3-31.3-73-33.7-40.5-2.2-27.4 42.3-27.4 42.3 6 20.9 27.8 51.9 32.3 58.1 4.5 6.2 12 17.8 18.6 24.9 15.7 17.1 16 10.1 49.5-3.5 3.4-1.4 7-2.8 11-4.3 86.7-31.7 85.4-41.9 102.9-7.3 3.1 6.3 14.4 7 24.9 2.7 7.3-2.6 13.6-7.6 17.8-14.1 4.2-6.5 6.1-14.2 5.5-21.9z"/>
	</g>
</svg>