<svg version="1.2" xmlns="http://www.w3.org/2000/svg" viewBox="0 0 703 437" width="100%" height="100%">
	<style>
		.s0 { fill: #fba919 } 
	</style>
	<g id="Clip-Path">
		<path id="Layer copy 4" class="s0" d="m257.3 198.9c18.1-1.1 19.9-18.4 3.4-25.2-7-2.9-13.9-6.3-20.4-10.2-12.4-7.4-23.8-16.5-33.8-27.3-15.1-16.3-26.4-35.6-33.2-56.3-5.6-17-8.2-35-7.5-53.3 0.9-24.3-7.1-31.4-14.4-18.7-3 5.4-5.2 11.1-6.7 17-0.7 2.5-1.3 5.2-1.8 8.1-4.1 28.2-0.7 57.1 9.9 83.6 5.6 14.1 13.2 27.3 22.4 39.3 8.1 10.5 14 14.8 28 28.3 14.1 13.5 33.7 16 54.1 14.7z"/>
	</g>
</svg>