<svg version="1.2" xmlns="http://www.w3.org/2000/svg" viewBox="0 0 703 437" width="100%" height="100%">
	<style>
		.s0 { fill: #fba919 } 
	</style>
	<g id="Clip-Path">
		<path id="Layer copy 3" class="s0" d="m518.9 287.1c24.6-25.3 19.7-39.6 18.3-41.6-5-10.2-2.6-26 10.2-47.7 2.8-6.1 7.3-11.2 13.1-14.6 5.7-3.4 12.3-5 19-4.6 10.5 0 22.5 2.2 37.1 1.9 45.8-1.2 63.3-29.7 61.2-55.9 0-7.9-10.9-5.5-30.9-10.2-19.9-4.8-35.6-2.4-39.7-30.3-2.4-7.8-7.1-14.8-13.5-19.9-6.4-5.2-14.3-8.2-22.5-8.9-16-2.4-50.2-18.7-75.8 1.7l-22.1-9.6c-14.4-3.6-14.4 6.5-27.9 11.5-13.4 5-37.1-7.3-30.6 9.1 4.8 9.5 12.8 17 22.7 21.2 9.9 4.1 20.9 4.5 31 1.2-15.7 79.3-92 97.1-155.5 94.7-24.1-1-47.4-7.5-68.1-18.9-18.3 1.6-30.2 10.1-41.7 18-13.2 11.7-22.6 27.1-26.8 44.2-2.9 12.4-3.3 25.2-1.1 37.6 0 3.3 1.3 5.2 1.3 5.2 5.5 26.2 63.2 114.5 108.2 66 2.7-3.8 5.9-7.2 9.4-10.3 2.3-1.9 5-3.4 7.8-4.4 2.6-0.5 5.3-0.5 8 0 17.4 4 56.7 25.5 101.1 18.3 17.3-6.3 39.9-22.9 53.3-35.6 0 0 33.1 3.8 54.5-18.1z"/>
	</g>
</svg>